<?xml version="1.0" standalone="no"?>
<!DOCTYPE svg PUBLIC "-//W3C//DTD SVG 20010904//EN"
 "http://www.w3.org/TR/2001/REC-SVG-20010904/DTD/svg10.dtd">
<svg version="1.0" xmlns="http://www.w3.org/2000/svg"
 width="225.000000pt" height="225.000000pt" viewBox="0 0 225.000000 225.000000"
 preserveAspectRatio="xMidYMid meet">

<g transform="translate(0.000000,225.000000) scale(0.100000,-0.100000)"
fill="#000000" stroke="none">
<path d="M2240 1991 l0 -259 -47 -5 c-56 -5 -245 22 -237 34 3 5 -15 9 -39 9
-27 0 -49 6 -57 15 -26 31 -180 5 -180 -31 0 -8 -24 -20 -57 -30 -50 -15 -69
-15 -139 -6 -44 7 -90 12 -102 12 -33 0 -72 -46 -72 -84 0 -46 -24 -73 -69
-81 -68 -11 -83 -38 -86 -157 -5 -157 -2 -152 -66 -161 -66 -9 -327 1 -389 15
-62 14 -134 38 -140 46 -12 16 -105 55 -143 59 -23 3 -49 11 -57 17 -8 7 -27
18 -43 26 -15 7 -27 17 -27 21 0 4 -25 23 -55 44 -30 20 -55 40 -55 44 0 4
-22 18 -50 31 -27 13 -50 27 -50 32 0 4 -5 8 -11 8 -6 0 -24 9 -40 21 l-29 20
0 -815 0 -816 575 0 c485 0 576 2 581 14 3 8 14 16 25 19 16 4 19 14 19 55 0
42 -4 52 -20 57 -11 3 -36 24 -57 45 -20 22 -52 45 -72 51 l-34 12 24 13 c20
10 27 10 40 -2 8 -8 21 -14 28 -14 7 0 21 -10 30 -22 15 -18 28 -21 83 -21 55
1 76 7 139 41 94 50 100 69 29 102 -27 13 -50 25 -50 27 0 2 7 11 15 21 9 9
26 29 38 44 19 23 30 27 77 29 63 2 110 -13 110 -36 0 -17 69 -84 88 -85 6 0
12 -4 12 -10 0 -5 6 -10 14 -10 16 0 26 -82 13 -106 -12 -21 19 -54 50 -54 23
0 32 -23 13 -35 -5 -3 -10 -15 -10 -26 0 -11 -7 -19 -17 -20 -10 0 -13 -3 -6
-5 9 -4 7 -14 -7 -36 -10 -18 -17 -35 -14 -40 3 -4 124 -8 270 -8 l264 0 0
1125 c0 619 -2 1125 -5 1125 -3 0 -5 -117 -5 -259z m-1537 -1421 c-3 -11 -12
-20 -19 -20 -17 0 -18 12 -2 28 18 18 27 15 21 -8z m-199 -247 c-4 -16 -15
-39 -26 -52 -10 -13 -18 -29 -18 -35 0 -7 -6 -24 -12 -39 -20 -43 -118 -73
-118 -37 0 6 18 22 41 37 22 14 52 47 66 72 46 81 80 108 67 54z"/>
<path d="M1425 20 c-3 -5 3 -10 15 -10 12 0 18 5 15 10 -3 6 -10 10 -15 10 -5
0 -12 -4 -15 -10z"/>
</g>
</svg>
